<?xml version="1.0" encoding="UTF-8" standalone="no"?>
<!-- Created with Inkscape (http://www.inkscape.org/) -->

<svg
   width="142.6284mm"
   height="142.80333mm"
   viewBox="0 0 142.6284 142.80333"
   version="1.1"
   id="svg5"
   inkscape:version="1.2.2 (b0a8486541, 2022-12-01)"
   sodipodi:docname="logo_umb.svg"
   xml:space="preserve"
   inkscape:export-filename="cartell_passacarrers.pdf"
   inkscape:export-xdpi="96"
   inkscape:export-ydpi="96"
   xmlns:inkscape="http://www.inkscape.org/namespaces/inkscape"
   xmlns:sodipodi="http://sodipodi.sourceforge.net/DTD/sodipodi-0.dtd"
   xmlns="http://www.w3.org/2000/svg"
   xmlns:svg="http://www.w3.org/2000/svg"><sodipodi:namedview
     id="namedview7"
     pagecolor="#ffffff"
     bordercolor="#000000"
     borderopacity="0.25"
     inkscape:showpageshadow="2"
     inkscape:pageopacity="0.0"
     inkscape:pagecheckerboard="0"
     inkscape:deskcolor="#d1d1d1"
     inkscape:document-units="mm"
     showgrid="false"
     inkscape:zoom="0.77326038"
     inkscape:cx="178.46511"
     inkscape:cy="397.66682"
     inkscape:window-width="1854"
     inkscape:window-height="1011"
     inkscape:window-x="66"
     inkscape:window-y="32"
     inkscape:window-maximized="1"
     inkscape:current-layer="svg5" /><defs
     id="defs2"><clipPath
       clipPathUnits="userSpaceOnUse"
       id="clipPath294"><path
         d="M 0,841.89 H 595.276 V 0 H 0 Z"
         id="path292" /></clipPath></defs><g
     inkscape:label="Layer 1"
     inkscape:groupmode="layer"
     id="layer1"
     style="display:inline" /><path
     d="M -0.65673733,148.1631 H 210.18577 V -0.54715304 H -0.65673733 Z"
     style="display:none;fill:#0e1522;fill-opacity:1;fill-rule:nonzero;stroke:none;stroke-width:0.250129"
     id="path286" /><g
     id="g288"
     transform="matrix(0.3079449,0,0,-0.30794491,-21.830554,201.80741)"><g
       id="g290"
       clip-path="url(#clipPath294)"><g
         id="g296"
         transform="translate(526.5088,345.4727)"><path
           d="m 0,0 c 0,-12.187 -1.72,-23.152 -5.156,-32.899 -3.44,-9.747 -8.073,-17.929 -13.905,-24.543 -6.179,-6.876 -12.968,-12.033 -20.365,-15.469 -7.398,-3.439 -15.535,-5.157 -24.412,-5.157 -8.269,0 -15.492,0.979 -21.672,2.937 -6.179,1.958 -12.271,4.59 -18.276,7.898 l -1.567,-6.788 h -22.976 v 381.517 h 24.543 V 56.526 c 6.874,5.659 14.184,10.292 21.932,13.905 7.746,3.609 16.45,5.417 26.11,5.417 17.232,0 30.83,-6.615 40.797,-19.843 C -4.983,42.774 0,24.106 0,0"
           style="fill:#ed1c24;fill-opacity:1;fill-rule:nonzero;stroke:none"
           id="path298" /></g><g
         id="g300"
         transform="translate(196.606,318.9785)"><path
           d="m 0,0 c -6.718,-30.204 -29.607,-41.077 -41.153,-41.077 -18.776,0 -17.671,11.41 -17.671,26.507 v 120.035 c -12.423,-9.757 -44.546,-7.749 -62.954,-7.015 v -9.201 h 23.93 V -17.149 c 0,-17.302 9.203,-35.711 44.547,-35.711 23.929,0 43.81,14.358 54.117,34.976 L 0.816,0 Z"
           style="fill:#ed1c24;fill-opacity:1;fill-rule:nonzero;stroke:none"
           id="path302" /></g><g
         id="g304"
         transform="translate(277.4541,426.666)"
         style="opacity:1"><path
           d="m 0,0 c 1.061,25.207 11.667,52.315 29.697,72.291 20.157,23.302 54.096,41.851 83.792,43.752 v 110.26 h -2.406 C 108.123,206.027 102.947,182.914 81.669,159.798 60.458,136.969 36.594,116.519 20.151,97.972 -1.59,73.716 -16.972,43.279 -16.972,12.366 c 0,-9.922 1.082,-19.821 2.993,-29.603 4.166,3.161 8.818,5.649 13.959,7.378 C -0.146,-6.589 -0.155,-3.303 0,0"
           style="fill:#0b1b2b;fill-opacity:1;fill-rule:nonzero;stroke:none"
           id="path306" /></g><g
         id="g308"
         transform="translate(297.7998,346.3828)"
         style="opacity:1"><path
           d="M 0,0 C -9.236,18.81 -16.904,38.951 -19.51,59.899 -23.899,59.445 -28.27,57.394 -32.356,54.157 -25.814,27.756 -13.536,2.474 0,-19.657 4.771,-27.456 9.694,-34.868 14.577,-41.795 h 8.482 C 15.551,-28.863 7.29,-14.846 0,0"
           style="fill:#0b1b2b;fill-opacity:1;fill-rule:nonzero;stroke:none"
           id="path310" /></g><g
         id="g312"
         transform="translate(385.7891,419.6396)"><path
           d="M 0,0 C -21.353,0 -37.184,-12.518 -47.86,-30.557 -54.486,-11.044 -69.948,0 -90.197,0 c -6.618,0 -12.665,-0.986 -18.157,-2.833 -5.142,-1.729 -9.793,-4.217 -13.96,-7.378 -8.222,-6.238 -14.564,-15.084 -19.057,-25.869 h -0.736 V 4.804 c -12.471,-9.757 -45.651,-7.749 -64.428,-7.015 v -9.201 h 25.404 v -136.586 h 59.272 v 9.206 h -20.248 v 70.315 c 0,19.693 9.618,39.761 21.762,49.377 4.086,3.237 8.457,5.288 12.845,5.743 0.613,0.064 1.227,0.102 1.84,0.102 22.09,0 17.671,-20.615 17.671,-37.551 v -22.451 c 7.29,-14.846 15.551,-28.863 23.058,-41.795 h -8.481 c -4.883,6.927 -9.807,14.339 -14.577,22.138 v -45.878 h -19.143 v -9.206 h 78.416 v 9.206 h -20.248 v 71.051 c 0,22.457 11.045,54.486 38.655,54.486 9.447,0 13.179,-5.051 14.628,-11.31 H 5.154 V -0.127 C 3.504,-0.047 1.792,0 0,0"
           style="fill:#ed1c24;fill-opacity:1;fill-rule:nonzero;stroke:none"
           id="path314" /></g><g
         id="g316"
         transform="translate(91.1968,209.7861)"
         style="opacity:1"><path
           d="m 0,0 h -0.146 c -1.365,-2.729 -3.997,-4.63 -7.165,-4.63 -4.678,0 -5.897,2.438 -5.897,4.728 v 14.085 h -3.167 v 1.218 c 2.436,-0.097 5.409,0.098 8.333,0.195 V 0.439 c 0,-1.998 -0.146,-3.509 2.34,-3.509 1.803,0 5.702,1.999 5.702,7.846 v 9.407 h -3.704 v 1.218 c 2.973,-0.097 5.946,0.098 8.87,0.195 V -2.68 h 3.412 v -1.218 c -2.876,0 -5.751,0.146 -8.578,-0.39 z"
           style="fill:#0b1b2b;fill-opacity:1;fill-rule:nonzero;stroke:none"
           id="path318" /></g><g
         id="g320"
         transform="translate(110.1572,220.8008)"
         style="opacity:1"><path
           d="m 0,0 h 0.098 c 1.559,3.022 3.752,4.679 7.261,4.679 6.482,0 5.946,-4.533 5.946,-9.358 v -9.015 h 3.07 v -1.219 H 5.069 v 1.219 h 3.07 v 8.772 c 0,4.532 0.487,7.847 -2.778,7.847 C 3.266,2.925 1.365,0.683 0.634,-1.121 0,-2.729 0,-4.971 0,-7.262 v -6.432 h 3.07 v -1.219 H -8.48 v 1.219 h 3.314 V 3.168 H -8.48 V 4.387 C -5.995,4.289 -3.021,4.484 0,4.581 Z"
           style="fill:#0b1b2b;fill-opacity:1;fill-rule:nonzero;stroke:none"
           id="path322" /></g><g
         id="g324"
         transform="translate(133.7476,231.4258)"
         style="opacity:1"><path
           d="m 0,0 c -1.511,0 -2.631,1.511 -2.631,2.924 0,1.316 1.315,2.632 2.631,2.632 1.414,0 2.875,-1.17 2.875,-2.632 C 2.875,1.267 1.657,0 0,0 m -5.799,-25.538 v 1.219 h 3.557 v 16.862 h -3.557 v 1.219 c 2.875,-0.098 5.848,0.097 8.821,0.194 v -18.275 h 3.606 v -1.219 z"
           style="fill:#0b1b2b;fill-opacity:1;fill-rule:nonzero;stroke:none"
           id="path326" /></g><g
         id="g328"
         transform="translate(151.0991,229.8662)"
         style="opacity:1"><path
           d="m 0,0 h -2.388 l 6.189,6.434 c 0.829,0.828 1.95,2.143 3.022,2.143 0.975,0 1.949,-0.926 1.949,-1.9 0,-0.585 -0.877,-1.413 -1.461,-1.804 z m 1.706,-5.361 c -4.777,0 -4.435,-3.801 -4.435,-9.309 0,-6.336 0.097,-9.064 4.435,-9.064 4.337,0 4.435,2.728 4.435,9.064 0,5.508 0.341,9.309 -4.435,9.309 m 0,0.974 c 5.507,0 10.234,-4.824 10.234,-10.283 0,-5.458 -4.727,-10.04 -10.234,-10.04 -5.508,0 -10.235,4.582 -10.235,10.04 0,5.459 4.727,10.283 10.235,10.283"
           style="fill:#0b1b2b;fill-opacity:1;fill-rule:nonzero;stroke:none"
           id="path330" /></g><g
         id="g332"
         transform="translate(185.9482,220.7041)"
         style="opacity:1"><path
           d="m 0,0 h 0.098 c 1.218,2.924 3.46,4.775 6.774,4.775 2.68,0 4.727,-1.462 5.605,-4.045 1.413,2.389 3.508,4.045 6.336,4.045 6.384,0 5.848,-3.947 5.848,-8.966 v -9.407 h 3.119 v -1.218 H 16.912 v 1.218 h 2.583 v 13.013 c 0,1.364 0.243,3.606 -2.047,3.606 -3.656,0 -5.117,-4.24 -5.117,-7.212 v -9.407 h 2.68 v -1.218 H 4.63 v 1.218 H 7.164 V -1.95 c 0,2.242 0.585,4.971 -2.339,4.971 C 2.437,3.021 0,-0.683 0,-4.289 v -9.309 h 2.681 v -1.218 H -8.334 v 1.218 h 3.168 V 3.265 H -8.529 V 4.483 C -6.043,4.386 -3.07,4.581 0,4.678 Z"
           style="fill:#0b1b2b;fill-opacity:1;fill-rule:nonzero;stroke:none"
           id="path334" /></g><g
         id="g336"
         transform="translate(231.666,209.7861)"
         style="opacity:1"><path
           d="m 0,0 h -0.146 c -1.365,-2.729 -3.997,-4.63 -7.165,-4.63 -4.678,0 -5.897,2.438 -5.897,4.728 v 14.085 h -3.167 v 1.218 c 2.437,-0.097 5.409,0.098 8.333,0.195 V 0.439 c 0,-1.998 -0.146,-3.509 2.34,-3.509 1.803,0 5.702,1.999 5.702,7.846 v 9.407 h -3.704 v 1.218 c 2.973,-0.097 5.946,0.098 8.87,0.195 V -2.68 h 3.412 v -1.218 c -2.876,0 -5.751,0.146 -8.578,-0.39 z"
           style="fill:#0b1b2b;fill-opacity:1;fill-rule:nonzero;stroke:none"
           id="path338" /></g><g
         id="g340"
         transform="translate(244.291,205.8877)"
         style="opacity:1"><path
           d="m 0,0 h -0.78 v 6.97 h 1.316 c 0.487,-3.461 2.486,-6.726 6.19,-6.726 2.144,0 4.435,1.462 4.435,3.899 0,2.436 -2.242,2.68 -4.776,3.021 -5.02,0.683 -6.921,2.73 -6.921,6.482 0,3.705 2.535,5.946 6.141,5.946 1.706,0 3.412,-0.536 4.776,-1.56 l 0.78,1.268 h 0.828 v -5.751 h -1.267 c -0.292,2.632 -2.388,5.068 -5.117,5.068 -1.901,0 -3.948,-1.121 -3.948,-3.362 0,-1.463 0.244,-1.999 4.63,-2.73 4.435,-0.731 6.969,-1.51 6.969,-6.531 0,-4.679 -2.583,-6.725 -6.969,-6.725 -1.608,0 -3.704,0.926 -4.873,2.046 z"
           style="fill:#0b1b2b;fill-opacity:1;fill-rule:nonzero;stroke:none"
           id="path342" /></g><g
         id="g344"
         transform="translate(266.0771,231.4258)"
         style="opacity:1"><path
           d="m 0,0 c -1.511,0 -2.631,1.511 -2.631,2.924 0,1.316 1.316,2.632 2.631,2.632 1.414,0 2.875,-1.17 2.875,-2.632 C 2.875,1.267 1.657,0 0,0 m -5.799,-25.538 v 1.219 h 3.557 v 16.862 h -3.557 v 1.219 c 2.875,-0.098 5.848,0.097 8.821,0.194 v -18.275 h 3.606 v -1.219 z"
           style="fill:#0b1b2b;fill-opacity:1;fill-rule:nonzero;stroke:none"
           id="path346" /></g><g
         id="g348"
         transform="translate(280.5527,212.3213)"
         style="opacity:1"><path
           d="m 0,0 c 0,-4.63 1.072,-6.189 4.289,-6.189 3.509,0 5.849,2.436 6.726,5.847 h 1.121 c -0.683,-4.24 -3.996,-6.823 -8.139,-6.823 -5.946,0 -9.942,4.727 -9.699,10.576 0.098,2.388 1.413,5.653 3.265,7.262 1.999,1.755 4.192,2.485 6.873,2.485 2.923,0 7.261,-1.315 7.261,-4.97 0,-1.317 -1.023,-2.828 -2.436,-2.828 -1.512,0 -3.023,0.634 -3.023,2.487 0,1.462 1.511,1.754 1.511,2.631 0,1.365 -2.631,1.706 -3.411,1.706 C -0.39,12.184 0,7.358 0,3.898 Z"
           style="fill:#0b1b2b;fill-opacity:1;fill-rule:nonzero;stroke:none"
           id="path350" /></g><g
         id="g352"
         transform="translate(308.918,215.6348)"
         style="opacity:1"><path
           d="m 0,0 c -3.021,0 -7.067,-0.39 -7.067,-4.337 0,-2.144 0.878,-3.753 3.168,-3.753 1.706,0 2.973,1.316 3.558,2.875 C -0.049,-4.483 0,-3.606 0,-2.681 Z m 0,7.116 c 0,1.267 -2.389,1.754 -3.217,1.754 -1.851,0 -4.142,-0.926 -3.411,-1.851 0.292,-0.391 0.682,-1.415 0.682,-2.34 0,-1.267 -1.218,-2.145 -2.339,-2.145 -1.365,0 -2.534,0.732 -2.534,2.291 0,3.704 4.775,5.02 7.749,5.02 2.095,0 4.337,-0.341 6.238,-1.316 C 4.532,7.847 4.971,7.067 4.971,5.557 V -7.407 c 0,-0.634 0.585,-0.927 1.17,-0.927 0.585,0 1.316,0.731 1.706,1.121 l 0.585,-0.683 c -1.268,-1.559 -2.583,-2.583 -4.63,-2.583 -2.145,0 -3.51,1.317 -3.802,3.461 -1.755,-2.144 -4.387,-3.461 -7.115,-3.461 -2.925,0 -5.07,1.609 -5.07,4.728 0,5.8 7.798,7.019 12.185,6.774 z"
           style="fill:#0b1b2b;fill-opacity:1;fill-rule:nonzero;stroke:none"
           id="path354" /></g><g
         id="g356"
         transform="translate(318.9111,205.8877)"
         style="opacity:1"><path
           d="M 0,0 V 1.219 H 3.655 V 31.338 H 0.146 v 1.218 c 2.973,-0.097 5.897,0.195 8.773,0.731 V 1.219 h 3.558 V 0 Z"
           style="fill:#0b1b2b;fill-opacity:1;fill-rule:nonzero;stroke:none"
           id="path358" /></g><g
         id="g360"
         transform="translate(351.4209,210.5176)"
         style="opacity:1"><path
           d="m 0,0 c 0,-2.339 0.828,-4.386 3.509,-4.386 2.972,0 5.848,3.167 5.848,6.092 v 5.166 c 0,3.07 -1.998,7.115 -5.751,7.115 C 0.39,13.987 0,11.453 0,8.675 Z M 9.357,-1.315 H 9.26 C 8.09,-3.898 5.8,-5.361 2.729,-5.361 c -2.583,0 -3.899,0.926 -5.75,2.535 -1.951,1.705 -2.925,4.971 -2.925,7.505 0,4.825 4.24,10.283 9.308,10.283 3.168,0 5.313,-1.852 5.898,-4.143 H 9.357 V 26.708 H 5.849 v 1.218 c 2.972,-0.097 5.896,0.195 8.772,0.731 V -3.411 H 18.13 V -4.63 c -2.827,0 -5.653,0.147 -8.773,-0.39 z"
           style="fill:#0b1b2b;fill-opacity:1;fill-rule:nonzero;stroke:none"
           id="path362" /></g><g
         id="g364"
         transform="translate(384.8076,217.877)"
         style="opacity:1"><path
           d="M 0,0 C 0,3.266 0.829,6.628 -3.509,6.628 -7.554,6.628 -7.115,3.07 -7.115,0 Z m -7.115,-1.219 v -3.898 c 0,-3.412 0.194,-6.628 4.338,-6.628 3.508,0 6.189,2.534 7.164,5.848 h 1.217 c -1.266,-4.728 -4.629,-6.824 -9.357,-6.824 -5.311,0 -9.162,5.118 -9.162,10.089 0,5.361 4.387,10.235 9.698,10.235 4.533,0 8.725,-3.12 8.725,-7.944 0,-1.023 -0.44,-0.878 -1.219,-0.878 z"
           style="fill:#0b1b2b;fill-opacity:1;fill-rule:nonzero;stroke:none"
           id="path366" /></g><g
         id="g368"
         transform="translate(392.2158,205.8877)"
         style="opacity:1"><path
           d="M 0,0 V 1.219 H 3.655 V 31.338 H 0.146 v 1.218 c 2.973,-0.097 5.897,0.195 8.773,0.731 V 1.219 h 3.558 V 0 Z"
           style="fill:#0b1b2b;fill-opacity:1;fill-rule:nonzero;stroke:none"
           id="path370" /></g><g
         id="g372"
         transform="translate(435.8369,219.9727)"
         style="opacity:1"><path
           d="m 0,0 c 0,2.388 -1.12,4.532 -3.703,4.532 -3.071,0 -5.508,-2.777 -5.751,-5.8 v -6.823 c 0,-3.021 2.728,-5.75 5.702,-5.75 2.777,0 3.752,2.096 3.752,4.581 z m -14.718,17.253 h -3.509 v 1.218 c 2.973,-0.097 5.897,0.195 8.773,0.731 V 1.9 c 1.266,2.145 3.313,3.607 5.799,3.607 5.508,0 9.406,-5.166 9.406,-10.381 0,-5.068 -3.801,-9.942 -9.26,-9.942 -2.387,0 -4.679,1.414 -5.945,3.363 v -3.022 c -2.974,0.537 -5.898,0.39 -8.773,0.39 v 1.219 h 3.509 z"
           style="fill:#0b1b2b;fill-opacity:1;fill-rule:nonzero;stroke:none"
           id="path374" /></g><g
         id="g376"
         transform="translate(458.2588,215.6348)"
         style="opacity:1"><path
           d="m 0,0 c -3.021,0 -7.067,-0.39 -7.067,-4.337 0,-2.144 0.878,-3.753 3.168,-3.753 1.706,0 2.973,1.316 3.558,2.875 C -0.049,-4.483 0,-3.606 0,-2.681 Z m 0,7.116 c 0,1.267 -2.389,1.754 -3.217,1.754 -1.851,0 -4.142,-0.926 -3.411,-1.851 0.292,-0.391 0.682,-1.415 0.682,-2.34 0,-1.267 -1.218,-2.145 -2.339,-2.145 -1.365,0 -2.534,0.732 -2.534,2.291 0,3.704 4.776,5.02 7.749,5.02 2.095,0 4.337,-0.341 6.238,-1.316 C 4.532,7.847 4.971,7.067 4.971,5.557 V -7.407 c 0,-0.634 0.585,-0.927 1.17,-0.927 0.585,0 1.316,0.731 1.706,1.121 l 0.585,-0.683 c -1.268,-1.559 -2.583,-2.583 -4.63,-2.583 -2.145,0 -3.51,1.317 -3.802,3.461 -1.755,-2.144 -4.387,-3.461 -7.115,-3.461 -2.925,0 -5.07,1.609 -5.07,4.728 0,5.8 7.798,7.019 12.185,6.774 z"
           style="fill:#0b1b2b;fill-opacity:1;fill-rule:nonzero;stroke:none"
           id="path378" /></g><g
         id="g380"
         transform="translate(475.3174,215.7324)"
         style="opacity:1"><path
           d="m 0,0 c 0,-1.755 0.731,-2.437 2.583,-2.437 2.096,0 2.778,0.439 2.778,2.437 V 6.774 C 5.361,8.383 4.436,8.772 2.778,8.772 0.731,8.772 0,7.798 0,6.774 Z m -0.73,-11.6 c -1.707,0 -1.95,-2.338 -1.95,-3.655 0,-3.07 2.144,-4.775 5.069,-4.775 3.947,0 7.602,1.169 8.87,5.409 0.828,2.778 -1.17,3.021 -3.704,3.021 z m 7.553,4.582 c 2.291,0 3.997,0.341 5.362,-1.559 0.731,-1.024 0.925,-2.291 0.925,-3.51 0,-6.287 -5.263,-9.162 -10.917,-9.162 -3.313,0 -7.992,1.56 -7.992,5.604 0,1.902 1.462,3.46 3.119,4.094 -1.95,0.732 -3.168,2.242 -3.168,4.436 0,2.924 1.803,4.24 4.386,4.97 -1.851,1.17 -3.266,2.779 -3.266,5.069 0,4.289 3.413,6.823 7.409,6.823 2.242,0 3.899,-0.73 5.556,-2.192 0.975,1.169 1.852,2.387 3.558,2.387 1.169,0 2.144,-0.78 2.144,-1.998 0,-1.17 -0.585,-1.755 -1.754,-1.755 -1.17,0 -1.609,1.658 -1.998,1.658 -0.537,0 -0.975,-0.683 -1.317,-1.024 0.829,-0.974 1.17,-2.242 1.17,-3.606 0,-2.194 -1.17,-4.532 -3.119,-5.654 -1.998,-1.121 -4.483,-0.78 -6.53,-0.78 -1.414,0 -4.679,-0.097 -4.679,-2.193 0,-1.218 0.877,-1.608 1.949,-1.608 z"
           style="fill:#0b1b2b;fill-opacity:1;fill-rule:nonzero;stroke:none"
           id="path382" /></g><g
         id="g384"
         transform="translate(503.5371,217.877)"
         style="opacity:1"><path
           d="M 0,0 C 0,3.266 0.829,6.628 -3.509,6.628 -7.554,6.628 -7.115,3.07 -7.115,0 Z m -7.115,-1.219 v -3.898 c 0,-3.412 0.194,-6.628 4.337,-6.628 3.509,0 6.19,2.534 7.165,5.848 h 1.217 c -1.266,-4.728 -4.629,-6.824 -9.357,-6.824 -5.311,0 -9.162,5.118 -9.162,10.089 0,5.361 4.387,10.235 9.698,10.235 4.533,0 8.725,-3.12 8.725,-7.944 0,-1.023 -0.44,-0.878 -1.219,-0.878 z"
           style="fill:#0b1b2b;fill-opacity:1;fill-rule:nonzero;stroke:none"
           id="path386" /></g><g
         id="g388"
         transform="translate(513.6748,205.8877)"
         style="opacity:1"><path
           d="m 0,0 h -0.78 v 6.97 h 1.316 c 0.487,-3.461 2.485,-6.726 6.19,-6.726 2.144,0 4.434,1.462 4.434,3.899 0,2.436 -2.241,2.68 -4.776,3.021 -5.02,0.683 -6.92,2.73 -6.92,6.482 0,3.705 2.534,5.946 6.14,5.946 1.707,0 3.412,-0.536 4.777,-1.56 L 11.16,19.3 h 0.829 v -5.751 h -1.267 c -0.292,2.632 -2.388,5.068 -5.118,5.068 -1.9,0 -3.947,-1.121 -3.947,-3.362 0,-1.463 0.243,-1.999 4.63,-2.73 4.435,-0.731 6.969,-1.51 6.969,-6.531 0,-4.679 -2.583,-6.725 -6.969,-6.725 -1.608,0 -3.704,0.926 -4.874,2.046 z"
           style="fill:#0b1b2b;fill-opacity:1;fill-rule:nonzero;stroke:none"
           id="path390" /></g></g></g></svg>
